<svg width="28" height="24" viewBox="0 0 28 24" fill="none" xmlns="http://www.w3.org/2000/svg">
<path d="M16.8968 4.11929C18.1914 4.94607 19.0993 6.34514 19.2645 7.96916C19.7925 8.22043 20.3785 8.36493 20.9998 8.36493C23.268 8.36493 25.1064 6.49249 25.1064 4.18264C25.1064 1.87244 23.268 0 20.9998 0C18.7533 0.000711818 16.931 1.83969 16.8968 4.11929ZM14.2065 12.6832C16.4747 12.6832 18.313 10.8104 18.313 8.50053C18.313 6.19068 16.4743 4.31824 14.2065 4.31824C11.9387 4.31824 10.0993 6.19103 10.0993 8.50088C10.0993 10.8107 11.9387 12.6832 14.2065 12.6832ZM15.9484 12.9683H12.4639C9.56466 12.9683 7.20599 15.371 7.20599 18.324V22.6643L7.21682 22.7323L7.51035 22.8259C10.2772 23.7064 12.6809 24 14.6594 24C18.5237 24 20.7636 22.8778 20.9016 22.8063L21.1759 22.665H21.2053V18.324C21.2063 15.371 18.8477 12.9683 15.9484 12.9683ZM22.7424 8.65036H19.2848C19.2474 10.0594 18.6569 11.3282 17.7229 12.2408C20.2999 13.0213 22.1854 15.4553 22.1854 18.3304V19.6679C25.5994 19.5405 27.5667 18.555 27.6963 18.4888L27.9706 18.3471H28V14.0054C28 11.0527 25.6413 8.65036 22.7424 8.65036ZM7.00087 8.36564C7.80422 8.36564 8.55165 8.12682 9.18482 7.72002C9.3861 6.38287 10.0899 5.21442 11.0952 4.41861C11.0994 4.34031 11.1067 4.26272 11.1067 4.18371C11.1067 1.8735 9.26799 0.00106765 7.00087 0.00106765C4.73236 0.00106765 2.89435 1.8735 2.89435 4.18371C2.89435 6.49285 4.73236 8.36564 7.00087 8.36564ZM10.6888 12.2408C9.75929 11.3328 9.17085 10.0708 9.12787 8.6703C8.99963 8.66069 8.87278 8.65036 8.74209 8.65036H5.25791C2.35867 8.65036 0 11.0527 0 14.0054V18.3464L0.0108324 18.4133L0.304355 18.5076C2.52395 19.2134 4.50488 19.5387 6.22548 19.6412V18.3304C6.22618 15.4553 8.11102 13.022 10.6888 12.2408Z" fill="#FAFAFF"/>
</svg>
